<svg xmlns="http://www.w3.org/2000/svg" height="512pt" version="1.1" viewBox="0 -12 512.00015 512" width="512pt">
<g id="surface1">
<path d="M 371.828125 197.035156 C 364.464844 160.628906 337.875 137.039062 303.921875 137.039062 C 288.511719 137.039062 272.152344 142.21875 256.0625 152.171875 C 239.835938 141.808594 223.609375 136.492188 207.65625 136.492188 C 173.566406 136.492188 146.976562 160.21875 140.023438 197.035156 C 130.339844 247.347656 160.066406 313.617188 248.152344 348.523438 C 248.425781 348.660156 248.5625 348.660156 248.835938 348.796875 C 251.289062 349.613281 253.605469 350.023438 255.789062 350.023438 C 257.96875 350.023438 260.289062 349.613281 262.742188 348.796875 C 263.015625 348.660156 263.289062 348.660156 263.558594 348.523438 C 351.78125 313.074219 381.507812 246.804688 371.828125 197.035156 C 371.828125 197.171875 371.828125 197.035156 371.828125 197.035156 Z M 256.0625 322.34375 C 184.335938 292.890625 159.65625 241.078125 167.019531 202.214844 C 171.519531 178.488281 187.203125 163.761719 207.789062 163.761719 C 220.199219 163.761719 233.972656 169.21875 247.878906 179.582031 C 252.652344 183.125 259.195312 183.125 264.105469 179.71875 C 277.742188 169.761719 291.921875 164.308594 304.058594 164.308594 C 324.648438 164.308594 340.464844 178.898438 345.101562 202.351562 C 352.464844 240.667969 327.785156 292.347656 256.0625 322.34375 Z M 256.0625 322.34375 " style=" stroke:none;fill-rule:nonzero;fill:rgb(0%,0%,0%);fill-opacity:1;" />
<path d="M 269.558594 0 C 135.386719 0 26.300781 109.222656 26.300781 243.257812 C 26.300781 273.53125 31.890625 303.390625 43.074219 331.753906 C 51.664062 353.433594 63.117188 373.75 76.480469 391.203125 L 3.9375 464.292969 C 0.121094 468.246094 -1.105469 474.109375 1.074219 479.152344 C 3.257812 484.199219 8.167969 487.609375 13.621094 487.609375 L 269.152344 487.609375 C 269.695312 487.609375 270.105469 487.609375 270.652344 487.472656 L 280.195312 486.382812 C 342.644531 483.515625 400.871094 456.792969 444.367188 411.25 C 488 365.570312 512 305.574219 512 242.578125 C 512 177.671875 486.773438 116.71875 441.09375 70.90625 C 395.417969 25.089844 334.464844 0 269.558594 0 Z M 424.734375 392.429688 C 386.007812 432.929688 334.191406 456.65625 278.695312 459.109375 C 278.421875 459.109375 278.148438 459.109375 277.742188 459.246094 L 268.46875 460.335938 L 46.480469 460.335938 L 104.570312 401.976562 C 109.613281 396.929688 109.886719 388.886719 105.25 383.433594 C 90.253906 366.113281 77.570312 344.84375 68.570312 321.9375 C 58.753906 296.710938 53.710938 270.394531 53.710938 243.394531 C 53.710938 124.21875 150.519531 27.40625 269.695312 27.40625 C 327.375 27.40625 381.507812 49.769531 422.003906 90.265625 C 462.640625 130.902344 485 184.898438 485 242.578125 C 484.867188 298.484375 463.457031 351.796875 424.734375 392.429688 Z M 424.734375 392.429688 " style=" stroke:none;fill-rule:nonzero;fill:rgb(0%,0%,0%);fill-opacity:1;" />
</g>
</svg>