<svg xmlns="http://www.w3.org/2000/svg" height="512pt" version="1.1" viewBox="0 -12 512.00015 512" width="512pt">
<g id="surface1">
<path d="M 352.464844 228.394531 L 328.464844 228.394531 C 322.875 213.398438 308.011719 201.804688 290.558594 201.804688 C 273.105469 201.804688 258.242188 213.394531 252.652344 228.394531 L 159.65625 228.394531 C 152.15625 228.394531 146.019531 234.53125 146.019531 242.03125 C 146.019531 249.53125 152.15625 255.667969 159.65625 255.667969 L 252.652344 255.667969 C 258.242188 270.667969 273.105469 282.257812 290.558594 282.257812 C 308.011719 282.257812 322.875 270.667969 328.464844 255.667969 L 352.464844 255.667969 C 359.964844 255.667969 366.101562 249.53125 366.101562 242.03125 C 366.101562 234.53125 359.964844 228.394531 352.464844 228.394531 Z M 290.558594 255.121094 C 283.332031 255.121094 277.605469 249.257812 277.605469 242.167969 C 277.605469 235.078125 283.46875 229.214844 290.558594 229.214844 C 297.648438 229.214844 303.511719 235.078125 303.511719 242.167969 C 303.511719 249.257812 297.785156 255.121094 290.558594 255.121094 Z M 290.558594 255.121094 " style=" stroke:none;fill-rule:nonzero;fill:rgb(0%,0%,0%);fill-opacity:1;" />
<path d="M 352.464844 297.9375 L 259.46875 297.9375 C 253.878906 282.9375 239.015625 271.347656 221.5625 271.347656 C 204.109375 271.347656 189.246094 282.9375 183.65625 297.9375 L 159.65625 297.9375 C 152.15625 297.9375 146.019531 304.074219 146.019531 311.574219 C 146.019531 319.070312 152.15625 325.207031 159.65625 325.207031 L 183.65625 325.207031 C 189.246094 340.207031 204.109375 351.796875 221.5625 351.796875 C 239.015625 351.796875 253.878906 340.207031 259.46875 325.207031 L 352.464844 325.207031 C 359.964844 325.207031 366.101562 319.070312 366.101562 311.574219 C 366.101562 304.074219 359.964844 297.9375 352.464844 297.9375 Z M 221.5625 324.527344 C 214.335938 324.527344 208.609375 318.664062 208.609375 311.574219 C 208.609375 304.480469 214.472656 298.617188 221.5625 298.617188 C 228.652344 298.617188 234.515625 304.480469 234.515625 311.574219 C 234.515625 318.664062 228.652344 324.527344 221.5625 324.527344 Z M 221.5625 324.527344 " style=" stroke:none;fill-rule:nonzero;fill:rgb(0%,0%,0%);fill-opacity:1;" />
<path d="M 352.464844 161.582031 L 259.46875 161.582031 C 253.878906 146.582031 239.015625 134.992188 221.5625 134.992188 C 204.109375 134.992188 189.246094 146.582031 183.65625 161.582031 L 159.65625 161.582031 C 152.15625 161.582031 146.019531 167.71875 146.019531 175.21875 C 146.019531 182.714844 152.15625 188.851562 159.65625 188.851562 L 183.65625 188.851562 C 189.246094 203.851562 204.109375 215.441406 221.5625 215.441406 C 239.015625 215.441406 253.878906 203.851562 259.46875 188.851562 L 352.464844 188.851562 C 359.964844 188.851562 366.101562 182.714844 366.101562 175.21875 C 366.101562 167.71875 359.964844 161.582031 352.464844 161.582031 Z M 221.5625 188.308594 C 214.335938 188.308594 208.609375 182.445312 208.609375 175.351562 C 208.609375 168.261719 214.472656 162.398438 221.5625 162.398438 C 228.652344 162.398438 234.515625 168.261719 234.515625 175.351562 C 234.515625 182.445312 228.652344 188.308594 221.5625 188.308594 Z M 221.5625 188.308594 " style=" stroke:none;fill-rule:nonzero;fill:rgb(0%,0%,0%);fill-opacity:1;" />
<path d="M 269.558594 0 C 135.386719 0 26.300781 109.222656 26.300781 243.257812 C 26.300781 273.53125 31.890625 303.390625 43.074219 331.753906 C 51.664062 353.433594 63.117188 373.75 76.480469 391.203125 L 3.9375 464.292969 C 0.121094 468.246094 -1.105469 474.109375 1.074219 479.152344 C 3.257812 484.199219 8.167969 487.609375 13.621094 487.609375 L 269.152344 487.609375 C 269.695312 487.609375 270.105469 487.609375 270.652344 487.472656 L 280.195312 486.382812 C 342.644531 483.515625 400.871094 456.792969 444.367188 411.25 C 488 365.570312 512 305.574219 512 242.578125 C 512 177.671875 486.773438 116.71875 441.09375 70.90625 C 395.417969 25.089844 334.464844 0 269.558594 0 Z M 424.734375 392.429688 C 386.007812 432.929688 334.191406 456.65625 278.695312 459.109375 C 278.421875 459.109375 278.148438 459.109375 277.742188 459.246094 L 268.46875 460.335938 L 46.480469 460.335938 L 104.570312 401.976562 C 109.613281 396.929688 109.886719 388.886719 105.25 383.433594 C 90.253906 366.113281 77.570312 344.84375 68.570312 321.9375 C 58.753906 296.710938 53.710938 270.394531 53.710938 243.394531 C 53.710938 124.21875 150.519531 27.40625 269.695312 27.40625 C 327.375 27.40625 381.507812 49.769531 422.003906 90.265625 C 462.640625 130.902344 485 184.898438 485 242.578125 C 484.867188 298.484375 463.457031 351.796875 424.734375 392.429688 Z M 424.734375 392.429688 " style=" stroke:none;fill-rule:nonzero;fill:rgb(0%,0%,0%);fill-opacity:1;" />
</g>
</svg>