<svg xmlns="http://www.w3.org/2000/svg" height="512pt" version="1.1" viewBox="0 -12 512.00015 512" width="512pt">
<g id="surface1">
<path d="M 305.148438 194.308594 C 299.832031 188.988281 291.242188 188.988281 285.921875 194.308594 L 256.0625 224.167969 L 226.335938 194.308594 C 221.015625 188.988281 212.425781 188.988281 207.109375 194.308594 C 201.789062 199.625 201.789062 208.214844 207.109375 213.535156 L 236.835938 243.257812 L 206.972656 273.121094 C 201.65625 278.4375 201.65625 287.027344 206.972656 292.347656 C 209.699219 295.074219 213.109375 296.300781 216.652344 296.300781 C 220.199219 296.300781 223.609375 294.9375 226.335938 292.347656 L 256.058594 262.621094 L 285.785156 292.347656 C 288.511719 295.074219 291.921875 296.300781 295.464844 296.300781 C 299.011719 296.300781 302.421875 294.9375 305.148438 292.347656 C 310.464844 287.027344 310.464844 278.4375 305.148438 273.121094 L 275.285156 243.394531 L 305.011719 213.667969 C 310.464844 208.351562 310.464844 199.625 305.148438 194.308594 Z M 305.148438 194.308594 " style=" stroke:none;fill-rule:nonzero;fill:rgb(0%,0%,0%);fill-opacity:1;" />
<path d="M 269.558594 0 C 135.386719 0 26.300781 109.222656 26.300781 243.257812 C 26.300781 273.53125 31.890625 303.390625 43.074219 331.753906 C 51.664062 353.433594 63.117188 373.75 76.480469 391.203125 L 3.9375 464.292969 C 0.121094 468.246094 -1.105469 474.109375 1.074219 479.152344 C 3.257812 484.199219 8.167969 487.609375 13.621094 487.609375 L 269.152344 487.609375 C 269.695312 487.609375 270.105469 487.609375 270.652344 487.472656 L 280.195312 486.382812 C 342.644531 483.515625 400.871094 456.792969 444.367188 411.25 C 488 365.570312 512 305.574219 512 242.578125 C 512 177.671875 486.773438 116.71875 441.09375 70.90625 C 395.417969 25.089844 334.464844 0 269.558594 0 Z M 424.734375 392.429688 C 386.007812 432.929688 334.191406 456.65625 278.695312 459.109375 C 278.421875 459.109375 278.148438 459.109375 277.742188 459.246094 L 268.46875 460.335938 L 46.480469 460.335938 L 104.570312 401.976562 C 109.613281 396.929688 109.886719 388.886719 105.25 383.433594 C 90.253906 366.113281 77.570312 344.84375 68.570312 321.9375 C 58.753906 296.710938 53.710938 270.394531 53.710938 243.394531 C 53.710938 124.21875 150.519531 27.40625 269.695312 27.40625 C 327.375 27.40625 381.507812 49.769531 422.003906 90.265625 C 462.640625 130.902344 485 184.898438 485 242.578125 C 484.867188 298.484375 463.457031 351.796875 424.734375 392.429688 Z M 424.734375 392.429688 " style=" stroke:none;fill-rule:nonzero;fill:rgb(0%,0%,0%);fill-opacity:1;" />
</g>
</svg>