<svg xmlns="http://www.w3.org/2000/svg" height="512pt" version="1.1" viewBox="0 -12 512.00015 512" width="512pt">
<g id="surface1">
<path d="M 362.964844 158.855469 L 310.601562 158.855469 L 310.601562 150.128906 C 310.601562 135.128906 298.332031 123.402344 283.332031 123.402344 L 228.789062 123.402344 C 213.789062 123.402344 201.519531 134.992188 201.519531 150.128906 L 201.519531 158.855469 L 149.160156 158.855469 C 141.660156 158.855469 135.523438 164.992188 135.523438 172.488281 C 135.523438 179.988281 141.660156 186.125 149.160156 186.125 L 164.976562 186.125 L 179.566406 351.253906 C 180.25 358.34375 186.109375 363.386719 193.203125 363.386719 L 319.058594 363.386719 C 326.148438 363.386719 332.011719 358.207031 332.695312 351.253906 L 347.148438 186.125 L 362.964844 186.125 C 370.464844 186.125 376.601562 179.988281 376.601562 172.488281 C 376.597656 164.992188 370.601562 158.855469 362.964844 158.855469 Z M 228.789062 150.671875 L 283.332031 150.671875 L 283.332031 158.855469 L 228.789062 158.855469 Z M 306.511719 336.117188 L 205.609375 336.117188 L 192.246094 186.125 L 319.738281 186.125 Z M 306.511719 336.117188 " style=" stroke:none;fill-rule:nonzero;fill:rgb(0%,0%,0%);fill-opacity:1;" />
<path d="M 269.558594 0 C 135.386719 0 26.300781 109.222656 26.300781 243.257812 C 26.300781 273.53125 31.890625 303.390625 43.074219 331.753906 C 51.664062 353.433594 63.117188 373.75 76.480469 391.203125 L 3.9375 464.292969 C 0.121094 468.246094 -1.105469 474.109375 1.074219 479.152344 C 3.257812 484.199219 8.167969 487.609375 13.621094 487.609375 L 269.152344 487.609375 C 269.695312 487.609375 270.105469 487.609375 270.652344 487.472656 L 280.195312 486.382812 C 342.644531 483.515625 400.871094 456.792969 444.367188 411.25 C 488 365.570312 512 305.574219 512 242.578125 C 512 177.671875 486.773438 116.71875 441.09375 70.90625 C 395.417969 25.089844 334.464844 0 269.558594 0 Z M 424.734375 392.429688 C 386.007812 432.929688 334.191406 456.65625 278.695312 459.109375 C 278.421875 459.109375 278.148438 459.109375 277.742188 459.246094 L 268.46875 460.335938 L 46.480469 460.335938 L 104.570312 401.976562 C 109.613281 396.929688 109.886719 388.886719 105.25 383.433594 C 90.253906 366.113281 77.570312 344.84375 68.570312 321.9375 C 58.753906 296.710938 53.710938 270.394531 53.710938 243.394531 C 53.710938 124.21875 150.519531 27.40625 269.695312 27.40625 C 327.375 27.40625 381.507812 49.769531 422.003906 90.265625 C 462.640625 130.902344 485 184.898438 485 242.578125 C 484.867188 298.484375 463.457031 351.796875 424.734375 392.429688 Z M 424.734375 392.429688 " style=" stroke:none;fill-rule:nonzero;fill:rgb(0%,0%,0%);fill-opacity:1;" />
</g>
</svg>