<svg xmlns="http://www.w3.org/2000/svg" height="512pt" version="1.1" viewBox="0 -12 512.00015 512" width="512pt">
<g id="surface1">
<path d="M 356.007812 207.941406 L 295.332031 199.078125 L 268.332031 144.128906 C 266.015625 139.492188 261.242188 136.492188 256.0625 136.492188 C 250.878906 136.492188 246.105469 139.492188 243.789062 144.128906 L 216.65625 199.078125 L 155.976562 207.941406 C 150.796875 208.625 146.570312 212.304688 144.933594 217.214844 C 143.296875 222.121094 144.660156 227.578125 148.339844 231.257812 L 192.246094 274.074219 L 181.882812 334.480469 C 181.066406 339.660156 183.113281 344.707031 187.339844 347.84375 C 191.566406 350.84375 197.15625 351.25 201.65625 348.933594 L 255.925781 320.433594 L 310.195312 348.933594 C 312.238281 350.023438 314.421875 350.433594 316.601562 350.433594 C 319.464844 350.433594 322.195312 349.613281 324.648438 347.84375 C 328.875 344.84375 330.921875 339.660156 330.101562 334.480469 L 319.738281 274.074219 L 363.644531 231.257812 C 367.328125 227.578125 368.691406 222.261719 367.054688 217.214844 C 365.417969 212.304688 361.191406 208.625 356.007812 207.941406 Z M 295.605469 259.347656 C 292.332031 262.484375 290.96875 266.984375 291.648438 271.484375 L 298.605469 311.707031 L 262.46875 292.753906 C 260.425781 291.664062 258.242188 291.253906 256.0625 291.253906 C 253.878906 291.253906 251.699219 291.800781 249.652344 292.753906 L 213.519531 311.707031 L 220.472656 271.484375 C 221.289062 267.121094 219.789062 262.484375 216.519531 259.347656 L 187.339844 230.851562 L 227.699219 224.988281 C 232.199219 224.304688 236.019531 221.578125 237.925781 217.488281 L 255.925781 180.945312 L 273.925781 217.488281 C 275.96875 221.578125 279.789062 224.304688 284.152344 224.988281 L 324.511719 230.851562 Z M 295.605469 259.347656 " style=" stroke:none;fill-rule:nonzero;fill:rgb(0%,0%,0%);fill-opacity:1;" />
<path d="M 269.558594 0 C 135.386719 0 26.300781 109.222656 26.300781 243.257812 C 26.300781 273.53125 31.890625 303.390625 43.074219 331.753906 C 51.664062 353.433594 63.117188 373.75 76.480469 391.203125 L 3.9375 464.292969 C 0.121094 468.246094 -1.105469 474.109375 1.074219 479.152344 C 3.257812 484.199219 8.167969 487.609375 13.621094 487.609375 L 269.152344 487.609375 C 269.695312 487.609375 270.105469 487.609375 270.652344 487.472656 L 280.195312 486.382812 C 342.644531 483.515625 400.871094 456.792969 444.367188 411.25 C 488 365.570312 512 305.574219 512 242.578125 C 512 177.671875 486.773438 116.71875 441.09375 70.90625 C 395.417969 25.089844 334.464844 0 269.558594 0 Z M 424.734375 392.429688 C 386.007812 432.929688 334.191406 456.65625 278.695312 459.109375 C 278.421875 459.109375 278.148438 459.109375 277.742188 459.246094 L 268.46875 460.335938 L 46.480469 460.335938 L 104.570312 401.976562 C 109.613281 396.929688 109.886719 388.886719 105.25 383.433594 C 90.253906 366.113281 77.570312 344.84375 68.570312 321.9375 C 58.753906 296.710938 53.710938 270.394531 53.710938 243.394531 C 53.710938 124.21875 150.519531 27.40625 269.695312 27.40625 C 327.375 27.40625 381.507812 49.769531 422.003906 90.265625 C 462.640625 130.902344 485 184.898438 485 242.578125 C 484.867188 298.484375 463.457031 351.796875 424.734375 392.429688 Z M 424.734375 392.429688 " style=" stroke:none;fill-rule:nonzero;fill:rgb(0%,0%,0%);fill-opacity:1;" />
</g>
</svg>