<svg xmlns="http://www.w3.org/2000/svg" height="512pt" version="1.1" viewBox="0 -12 512.00015 512" width="512pt">
<g id="surface1">
<path d="M 337.191406 140.308594 C 333.375 137.175781 328.328125 136.355469 323.691406 137.992188 L 283.332031 153.125 C 283.195312 153.125 283.195312 153.261719 283.058594 153.261719 C 278.421875 155.171875 274.605469 158.851562 272.695312 163.625 C 272.558594 163.898438 272.425781 164.308594 272.425781 164.582031 L 270.105469 171.808594 C 268.332031 169.214844 265.605469 167.445312 262.46875 166.625 C 258.515625 165.535156 254.425781 166.351562 251.152344 168.671875 C 213.929688 195.125 194.703125 242.574219 201.519531 290.710938 L 172.886719 327.796875 C 168.25 333.796875 169.339844 342.386719 175.339844 346.886719 C 177.792969 348.796875 180.792969 349.75 183.65625 349.75 C 187.746094 349.75 191.839844 347.980469 194.429688 344.433594 L 224.292969 305.707031 C 249.925781 302.707031 274.199219 291.9375 293.558594 274.753906 C 314.96875 255.800781 329.285156 229.894531 334.058594 201.667969 L 342.101562 153.261719 C 342.78125 148.21875 341.011719 143.445312 337.191406 140.308594 Z M 307.058594 197.035156 C 303.375 219.125 292.058594 239.441406 275.285156 254.304688 C 268.195312 260.578125 260.425781 265.757812 251.96875 269.710938 L 266.695312 250.621094 C 271.332031 244.621094 270.242188 236.03125 264.242188 231.53125 C 258.242188 226.894531 249.652344 227.988281 245.152344 233.988281 L 228.515625 255.53125 C 231.652344 235.078125 240.515625 216.261719 254.152344 201.808594 L 260.152344 214.625 C 262.46875 219.667969 267.785156 222.804688 273.378906 222.53125 C 278.96875 222.125 283.742188 218.441406 285.511719 213.125 L 296.964844 177.261719 L 311.285156 171.945312 Z M 307.058594 197.035156 " style=" stroke:none;fill-rule:nonzero;fill:rgb(0%,0%,0%);fill-opacity:1;" />
<path d="M 269.558594 0 C 135.386719 0 26.300781 109.222656 26.300781 243.257812 C 26.300781 273.53125 31.890625 303.390625 43.074219 331.753906 C 51.664062 353.433594 63.117188 373.75 76.480469 391.203125 L 3.9375 464.292969 C 0.121094 468.246094 -1.105469 474.109375 1.074219 479.152344 C 3.257812 484.199219 8.167969 487.609375 13.621094 487.609375 L 269.152344 487.609375 C 269.695312 487.609375 270.105469 487.609375 270.652344 487.472656 L 280.195312 486.382812 C 342.644531 483.515625 400.871094 456.792969 444.367188 411.25 C 488 365.570312 512 305.574219 512 242.578125 C 512 177.671875 486.773438 116.71875 441.09375 70.90625 C 395.417969 25.089844 334.464844 0 269.558594 0 Z M 424.734375 392.429688 C 386.007812 432.929688 334.191406 456.65625 278.695312 459.109375 C 278.421875 459.109375 278.148438 459.109375 277.742188 459.246094 L 268.46875 460.335938 L 46.480469 460.335938 L 104.570312 401.976562 C 109.613281 396.929688 109.886719 388.886719 105.25 383.433594 C 90.253906 366.113281 77.570312 344.84375 68.570312 321.9375 C 58.753906 296.710938 53.710938 270.394531 53.710938 243.394531 C 53.710938 124.21875 150.519531 27.40625 269.695312 27.40625 C 327.375 27.40625 381.507812 49.769531 422.003906 90.265625 C 462.640625 130.902344 485 184.898438 485 242.578125 C 484.867188 298.484375 463.457031 351.796875 424.734375 392.429688 Z M 424.734375 392.429688 " style=" stroke:none;fill-rule:nonzero;fill:rgb(0%,0%,0%);fill-opacity:1;" />
</g>
</svg>