<svg xmlns="http://www.w3.org/2000/svg" height="512pt" version="1.1" viewBox="0 -12 512.00015 512" width="512pt">
<g id="surface1">
<path d="M 357.101562 126.128906 L 155.019531 126.128906 C 147.523438 126.128906 141.523438 132.675781 141.523438 140.171875 L 141.523438 167.445312 C 141.523438 171.398438 143.292969 175.214844 146.292969 177.808594 L 220.609375 241.347656 L 220.609375 346.617188 C 220.609375 351.386719 222.925781 355.753906 226.878906 358.207031 C 229.0625 359.570312 231.515625 360.25 233.972656 360.25 C 236.015625 360.25 238.0625 359.84375 239.96875 358.75 L 284.011719 336.660156 C 288.648438 334.34375 291.375 329.570312 291.375 324.527344 L 291.375 241.347656 L 365.691406 177.808594 C 368.6875 175.214844 370.460938 171.398438 370.460938 167.445312 L 370.460938 140.171875 C 370.601562 132.675781 364.601562 126.128906 357.101562 126.128906 Z M 343.328125 161.171875 L 269.015625 224.714844 C 266.015625 227.304688 264.242188 231.121094 264.242188 235.078125 L 264.242188 316.207031 L 247.878906 324.660156 L 247.878906 235.078125 C 247.878906 231.125 246.105469 227.304688 243.105469 224.714844 L 168.792969 161.171875 L 168.792969 153.402344 L 343.328125 153.402344 Z M 343.328125 161.171875 " style=" stroke:none;fill-rule:nonzero;fill:rgb(0%,0%,0%);fill-opacity:1;" />
<path d="M 269.558594 0 C 135.386719 0 26.300781 109.222656 26.300781 243.257812 C 26.300781 273.53125 31.890625 303.390625 43.074219 331.753906 C 51.664062 353.433594 63.117188 373.75 76.480469 391.203125 L 3.9375 464.292969 C 0.121094 468.246094 -1.105469 474.109375 1.074219 479.152344 C 3.257812 484.199219 8.167969 487.609375 13.621094 487.609375 L 269.152344 487.609375 C 269.695312 487.609375 270.105469 487.609375 270.652344 487.472656 L 280.195312 486.382812 C 342.644531 483.515625 400.871094 456.792969 444.367188 411.25 C 488 365.570312 512 305.574219 512 242.578125 C 512 177.671875 486.773438 116.71875 441.09375 70.90625 C 395.417969 25.089844 334.464844 0 269.558594 0 Z M 424.734375 392.429688 C 386.007812 432.929688 334.191406 456.65625 278.695312 459.109375 C 278.421875 459.109375 278.148438 459.109375 277.742188 459.246094 L 268.46875 460.335938 L 46.480469 460.335938 L 104.570312 401.976562 C 109.613281 396.929688 109.886719 388.886719 105.25 383.433594 C 90.253906 366.113281 77.570312 344.84375 68.570312 321.9375 C 58.753906 296.710938 53.710938 270.394531 53.710938 243.394531 C 53.710938 124.21875 150.519531 27.40625 269.695312 27.40625 C 327.375 27.40625 381.507812 49.769531 422.003906 90.265625 C 462.640625 130.902344 485 184.898438 485 242.578125 C 484.867188 298.484375 463.457031 351.796875 424.734375 392.429688 Z M 424.734375 392.429688 " style=" stroke:none;fill-rule:nonzero;fill:rgb(0%,0%,0%);fill-opacity:1;" />
</g>
</svg>