<svg xmlns="http://www.w3.org/2000/svg" height="512pt" version="1.1" viewBox="0 -12 512.00015 512" width="512pt">
<g id="surface1">
<path d="M 343.191406 175.488281 L 367.871094 150.808594 C 373.191406 145.492188 373.191406 136.902344 367.871094 131.582031 C 362.554688 126.265625 353.964844 126.265625 348.644531 131.582031 L 319.058594 161.171875 C 299.96875 151.628906 278.695312 145.082031 256.0625 145.082031 C 173.429688 145.082031 109.207031 231.804688 106.480469 235.484375 C 102.933594 240.257812 102.933594 246.804688 106.480469 251.574219 C 108.113281 253.757812 132.113281 286.074219 168.792969 311.433594 L 144.113281 336.117188 C 138.792969 341.433594 138.792969 350.023438 144.113281 355.34375 C 146.839844 358.070312 150.25 359.296875 153.792969 359.296875 C 157.339844 359.296875 160.746094 357.933594 163.472656 355.34375 L 193.0625 325.753906 C 212.152344 335.296875 233.425781 341.84375 256.058594 341.84375 C 338.691406 341.84375 402.914062 255.121094 405.640625 251.4375 C 409.1875 246.667969 409.1875 240.121094 405.640625 235.347656 C 404.007812 233.167969 380.007812 200.851562 343.191406 175.488281 Z M 134.976562 243.394531 C 152.019531 223.214844 200.699219 172.21875 256.0625 172.21875 C 270.921875 172.21875 285.105469 175.898438 298.46875 181.625 L 291.511719 188.582031 C 281.285156 181.898438 269.015625 178.082031 255.925781 178.082031 C 219.925781 178.082031 190.472656 207.398438 190.472656 243.53125 C 190.472656 256.621094 194.425781 268.894531 200.972656 279.121094 L 188.292969 291.800781 C 163.75 275.4375 144.523438 254.578125 134.976562 243.394531 Z M 294.238281 243.394531 C 294.238281 264.394531 277.195312 281.574219 256.0625 281.574219 C 250.46875 281.574219 245.289062 280.347656 240.515625 278.300781 L 290.832031 227.988281 C 293.011719 232.621094 294.238281 237.804688 294.238281 243.394531 Z M 217.882812 243.394531 C 217.882812 222.394531 234.925781 205.214844 256.0625 205.214844 C 261.652344 205.214844 266.832031 206.441406 271.605469 208.488281 L 221.289062 258.804688 C 219.109375 254.167969 217.882812 248.984375 217.882812 243.394531 Z M 256.0625 314.574219 C 241.199219 314.574219 227.015625 310.890625 213.652344 305.164062 L 220.609375 298.210938 C 230.835938 304.890625 243.105469 308.707031 256.195312 308.707031 C 292.195312 308.707031 321.648438 279.390625 321.648438 243.257812 C 321.648438 230.167969 317.695312 217.894531 311.148438 207.667969 L 323.828125 194.988281 C 348.648438 211.214844 367.871094 231.941406 377.417969 243.121094 C 360.101562 263.574219 311.421875 314.574219 256.0625 314.574219 Z M 256.0625 314.574219 " style=" stroke:none;fill-rule:nonzero;fill:rgb(0%,0%,0%);fill-opacity:1;" />
<path d="M 269.558594 0 C 135.386719 0 26.300781 109.222656 26.300781 243.257812 C 26.300781 273.53125 31.890625 303.390625 43.074219 331.753906 C 51.664062 353.433594 63.117188 373.75 76.480469 391.203125 L 3.9375 464.292969 C 0.121094 468.246094 -1.105469 474.109375 1.074219 479.152344 C 3.257812 484.199219 8.167969 487.609375 13.621094 487.609375 L 269.152344 487.609375 C 269.695312 487.609375 270.105469 487.609375 270.652344 487.472656 L 280.195312 486.382812 C 342.644531 483.515625 400.871094 456.792969 444.367188 411.25 C 488 365.570312 512 305.574219 512 242.578125 C 512 177.671875 486.773438 116.71875 441.09375 70.90625 C 395.417969 25.089844 334.464844 0 269.558594 0 Z M 424.734375 392.429688 C 386.007812 432.929688 334.191406 456.65625 278.695312 459.109375 C 278.421875 459.109375 278.148438 459.109375 277.742188 459.246094 L 268.46875 460.335938 L 46.480469 460.335938 L 104.570312 401.976562 C 109.613281 396.929688 109.886719 388.886719 105.25 383.433594 C 90.253906 366.113281 77.570312 344.84375 68.570312 321.9375 C 58.753906 296.710938 53.710938 270.394531 53.710938 243.394531 C 53.710938 124.21875 150.519531 27.40625 269.695312 27.40625 C 327.375 27.40625 381.507812 49.769531 422.003906 90.265625 C 462.640625 130.902344 485 184.898438 485 242.578125 C 484.867188 298.484375 463.457031 351.796875 424.734375 392.429688 Z M 424.734375 392.429688 " style=" stroke:none;fill-rule:nonzero;fill:rgb(0%,0%,0%);fill-opacity:1;" />
</g>
</svg>