<svg xmlns="http://www.w3.org/2000/svg" height="512pt" version="1.1" viewBox="0 -12 512.00015 512" width="512pt">
<g id="surface1">
<path d="M 335.148438 267.9375 L 335.148438 238.351562 C 335.148438 204.941406 315.101562 176.171875 286.332031 164.171875 C 287.96875 160.355469 288.921875 155.992188 288.921875 151.628906 C 288.921875 133.492188 274.195312 118.765625 256.0625 118.765625 C 237.925781 118.765625 223.199219 133.492188 223.199219 151.628906 C 223.199219 156.128906 224.289062 160.355469 225.925781 164.171875 C 197.15625 176.308594 177.109375 204.941406 177.109375 238.351562 L 177.109375 267.9375 C 163.476562 273.664062 155.15625 286.890625 155.15625 301.753906 C 155.15625 322.070312 171.382812 338.84375 191.699219 338.84375 L 214.609375 338.84375 C 220.335938 355.207031 236.835938 368.839844 256.0625 368.839844 C 275.285156 368.839844 291.785156 355.207031 297.511719 338.84375 L 320.421875 338.84375 C 340.738281 338.84375 356.964844 322.070312 356.964844 301.753906 C 357.101562 286.890625 348.78125 273.664062 335.148438 267.9375 Z M 256.0625 145.765625 C 259.058594 145.765625 261.652344 148.355469 261.652344 151.355469 C 261.652344 154.628906 259.195312 156.945312 256.0625 156.945312 C 252.925781 156.945312 250.46875 154.492188 250.46875 151.355469 C 250.46875 148.355469 253.0625 145.765625 256.0625 145.765625 Z M 256.0625 185.171875 C 284.832031 185.171875 307.875 209.035156 307.875 238.214844 L 307.875 265.210938 L 204.246094 265.210938 L 204.246094 238.351562 C 204.246094 209.03125 227.289062 185.171875 256.0625 185.171875 Z M 256.0625 341.570312 C 252.652344 341.570312 249.378906 340.207031 246.789062 338.84375 L 265.332031 338.84375 C 262.742188 340.207031 259.46875 341.570312 256.0625 341.570312 Z M 320.558594 311.574219 L 191.699219 311.574219 C 186.519531 311.574219 182.15625 307.210938 182.15625 302.027344 C 182.15625 296.847656 186.382812 292.484375 191.699219 292.484375 L 320.558594 292.484375 C 325.738281 292.484375 330.101562 296.847656 330.101562 302.027344 C 329.964844 307.210938 325.738281 311.574219 320.558594 311.574219 Z M 320.558594 311.574219 " style=" stroke:none;fill-rule:nonzero;fill:rgb(0%,0%,0%);fill-opacity:1;" />
<path d="M 269.558594 0 C 135.386719 0 26.300781 109.222656 26.300781 243.257812 C 26.300781 273.53125 31.890625 303.390625 43.074219 331.753906 C 51.664062 353.433594 63.117188 373.75 76.480469 391.203125 L 3.9375 464.292969 C 0.121094 468.246094 -1.105469 474.109375 1.074219 479.152344 C 3.257812 484.199219 8.167969 487.609375 13.621094 487.609375 L 269.152344 487.609375 C 269.695312 487.609375 270.105469 487.609375 270.652344 487.472656 L 280.195312 486.382812 C 342.644531 483.515625 400.871094 456.792969 444.367188 411.25 C 488 365.570312 512 305.574219 512 242.578125 C 512 177.671875 486.773438 116.71875 441.09375 70.90625 C 395.417969 25.089844 334.464844 0 269.558594 0 Z M 424.734375 392.429688 C 386.007812 432.929688 334.191406 456.65625 278.695312 459.109375 C 278.421875 459.109375 278.148438 459.109375 277.742188 459.246094 L 268.46875 460.335938 L 46.480469 460.335938 L 104.570312 401.976562 C 109.613281 396.929688 109.886719 388.886719 105.25 383.433594 C 90.253906 366.113281 77.570312 344.84375 68.570312 321.9375 C 58.753906 296.710938 53.710938 270.394531 53.710938 243.394531 C 53.710938 124.21875 150.519531 27.40625 269.695312 27.40625 C 327.375 27.40625 381.507812 49.769531 422.003906 90.265625 C 462.640625 130.902344 485 184.898438 485 242.578125 C 484.867188 298.484375 463.457031 351.796875 424.734375 392.429688 Z M 424.734375 392.429688 " style=" stroke:none;fill-rule:nonzero;fill:rgb(0%,0%,0%);fill-opacity:1;" />
</g>
</svg>