<svg xmlns="http://www.w3.org/2000/svg" height="512pt" version="1.1" viewBox="0 -12 512.00015 512" width="512pt">
<g id="surface1">
<path d="M 174.519531 140.855469 C 156.65625 158.71875 145.339844 181.488281 141.929688 206.441406 C 138.65625 230.578125 143.15625 255.667969 154.75 277.210938 C 154.75 277.210938 154.75 277.347656 154.886719 277.347656 C 160.613281 287.710938 167.15625 296.4375 174.65625 303.9375 L 246.378906 375.660156 C 248.96875 378.25 252.378906 379.613281 256.058594 379.613281 C 259.742188 379.613281 263.152344 378.113281 265.742188 375.660156 L 337.464844 303.9375 C 359.417969 281.984375 371.554688 252.941406 371.554688 222.261719 C 371.6875 191.578125 359.691406 162.535156 337.875 140.855469 C 292.605469 95.859375 219.519531 95.859375 174.519531 140.855469 Z M 317.964844 284.710938 L 255.925781 346.753906 L 193.882812 284.710938 C 188.15625 278.984375 183.246094 272.300781 178.746094 264.257812 C 160.203125 229.625 166.203125 187.761719 193.882812 160.082031 C 228.242188 125.71875 284.148438 125.71875 318.511719 160.082031 C 335.148438 176.71875 344.28125 198.808594 344.144531 222.125 C 344.011719 245.714844 334.738281 267.9375 317.964844 284.710938 Z M 317.964844 284.710938 " style=" stroke:none;fill-rule:nonzero;fill:rgb(0%,0%,0%);fill-opacity:1;" />
<path d="M 255.789062 150.808594 C 218.015625 150.808594 187.203125 181.625 187.203125 219.398438 C 187.203125 257.167969 218.015625 287.984375 255.789062 287.984375 C 293.558594 287.984375 324.375 257.167969 324.375 219.398438 C 324.375 181.625 293.695312 150.808594 255.789062 150.808594 Z M 255.789062 260.574219 C 233.015625 260.574219 214.472656 242.03125 214.472656 219.257812 C 214.472656 196.488281 233.015625 177.945312 255.789062 177.945312 C 278.558594 177.945312 297.105469 196.488281 297.105469 219.257812 C 297.105469 242.03125 278.558594 260.574219 255.789062 260.574219 Z M 255.789062 260.574219 " style=" stroke:none;fill-rule:nonzero;fill:rgb(0%,0%,0%);fill-opacity:1;" />
<path d="M 269.558594 0 C 135.386719 0 26.300781 109.222656 26.300781 243.257812 C 26.300781 273.53125 31.890625 303.390625 43.074219 331.753906 C 51.664062 353.433594 63.117188 373.75 76.480469 391.203125 L 3.9375 464.292969 C 0.121094 468.246094 -1.105469 474.109375 1.074219 479.152344 C 3.257812 484.199219 8.167969 487.609375 13.621094 487.609375 L 269.152344 487.609375 C 269.695312 487.609375 270.105469 487.609375 270.652344 487.472656 L 280.195312 486.382812 C 342.644531 483.515625 400.871094 456.792969 444.367188 411.25 C 488 365.570312 512 305.574219 512 242.578125 C 512 177.671875 486.773438 116.71875 441.09375 70.90625 C 395.417969 25.089844 334.464844 0 269.558594 0 Z M 424.734375 392.429688 C 386.007812 432.929688 334.191406 456.65625 278.695312 459.109375 C 278.421875 459.109375 278.148438 459.109375 277.742188 459.246094 L 268.46875 460.335938 L 46.480469 460.335938 L 104.570312 401.976562 C 109.613281 396.929688 109.886719 388.886719 105.25 383.433594 C 90.253906 366.113281 77.570312 344.84375 68.570312 321.9375 C 58.753906 296.710938 53.710938 270.394531 53.710938 243.394531 C 53.710938 124.21875 150.519531 27.40625 269.695312 27.40625 C 327.375 27.40625 381.507812 49.769531 422.003906 90.265625 C 462.640625 130.902344 485 184.898438 485 242.578125 C 484.867188 298.484375 463.457031 351.796875 424.734375 392.429688 Z M 424.734375 392.429688 " style=" stroke:none;fill-rule:nonzero;fill:rgb(0%,0%,0%);fill-opacity:1;" />
</g>
</svg>