<svg xmlns="http://www.w3.org/2000/svg" height="512pt" version="1.1" viewBox="0 -12 512 512" width="512pt">
<g id="surface1">
<path d="M 317.011719 285.117188 C 328.601562 269.574219 335.417969 250.484375 335.417969 229.757812 C 335.417969 178.488281 293.695312 136.628906 242.289062 136.628906 C 190.882812 136.628906 149.160156 178.351562 149.160156 229.757812 C 149.160156 281.164062 190.882812 322.890625 242.289062 322.890625 C 263.015625 322.890625 282.242188 316.070312 297.648438 304.480469 L 339.511719 346.34375 C 342.238281 349.070312 345.648438 350.296875 349.191406 350.296875 C 352.738281 350.296875 356.144531 348.933594 358.871094 346.34375 C 364.191406 341.023438 364.191406 332.433594 358.871094 327.117188 Z M 176.566406 229.621094 C 176.566406 193.351562 206.019531 163.761719 242.425781 163.761719 C 278.832031 163.761719 308.285156 193.214844 308.285156 229.621094 C 308.285156 247.210938 301.328125 263.300781 290.011719 275.164062 C 289.605469 275.4375 289.332031 275.710938 288.921875 276.121094 C 288.648438 276.390625 288.238281 276.800781 287.96875 277.210938 C 276.105469 288.527344 260.152344 295.480469 242.425781 295.480469 C 206.019531 295.480469 176.566406 265.894531 176.566406 229.621094 Z M 176.566406 229.621094 " style=" stroke:none;fill-rule:nonzero;fill:rgb(0%,0%,0%);fill-opacity:1;" />
<path d="M 441.230469 70.90625 C 395.550781 25.226562 334.601562 0 269.558594 0 C 135.386719 0 26.300781 109.222656 26.300781 243.257812 C 26.300781 273.527344 31.890625 303.390625 43.074219 331.753906 C 51.664062 353.433594 63.117188 373.75 76.480469 391.203125 L 3.9375 464.289062 C 0.121094 468.242188 -1.105469 474.109375 1.074219 479.152344 C 3.257812 484.199219 8.167969 487.605469 13.621094 487.605469 L 269.148438 487.605469 C 269.695312 487.605469 270.105469 487.605469 270.652344 487.46875 L 280.195312 486.378906 C 342.644531 483.515625 400.871094 456.789062 444.367188 411.246094 C 488 365.570312 512 305.570312 512 242.574219 C 512.136719 177.535156 486.910156 116.582031 441.230469 70.90625 Z M 424.730469 392.429688 C 386.007812 432.929688 334.191406 456.652344 278.695312 459.109375 C 278.421875 459.109375 278.148438 459.109375 277.742188 459.246094 L 268.46875 460.335938 L 46.480469 460.335938 L 104.570312 401.976562 C 109.613281 396.929688 109.886719 388.886719 105.25 383.429688 C 90.253906 366.113281 77.570312 344.839844 68.570312 321.933594 C 58.753906 296.707031 53.707031 270.390625 53.707031 243.394531 C 53.707031 124.21875 150.519531 27.40625 269.695312 27.40625 C 327.375 27.40625 381.507812 49.769531 422.003906 90.265625 C 462.640625 130.902344 485 184.898438 485 242.574219 C 484.863281 298.480469 463.457031 351.796875 424.730469 392.429688 Z M 424.730469 392.429688 " style=" stroke:none;fill-rule:nonzero;fill:rgb(0%,0%,0%);fill-opacity:1;" />
</g>
</svg>