<svg xmlns="http://www.w3.org/2000/svg" height="512pt" version="1.1" viewBox="0 -12 512.00015 512" width="512pt">
<g id="surface1">
<path d="M 332.285156 214.078125 C 358.871094 214.078125 380.554688 192.398438 380.554688 165.808594 C 380.554688 139.21875 358.871094 117.539062 332.285156 117.539062 C 305.695312 117.539062 284.011719 139.21875 284.011719 165.808594 C 284.011719 169.625 284.421875 173.308594 285.242188 176.71875 L 215.015625 210.398438 C 206.152344 200.988281 193.746094 195.125 179.835938 195.125 C 153.246094 195.125 131.566406 216.804688 131.566406 243.394531 C 131.566406 269.984375 153.246094 291.664062 179.835938 291.664062 C 192.109375 291.664062 203.289062 287.027344 211.746094 279.53125 L 284.695312 312.9375 C 284.285156 315.527344 284.011719 318.253906 284.011719 320.980469 C 284.011719 347.570312 305.691406 369.25 332.28125 369.25 C 358.871094 369.25 380.550781 347.570312 380.550781 320.980469 C 380.550781 294.390625 358.871094 272.710938 332.28125 272.710938 C 318.238281 272.710938 305.558594 278.710938 296.695312 288.394531 L 226.472656 256.210938 C 227.5625 252.121094 228.242188 247.757812 228.242188 243.394531 C 228.242188 240.394531 227.972656 237.53125 227.425781 234.804688 L 298.875 200.578125 C 307.46875 208.898438 319.191406 214.078125 332.285156 214.078125 Z M 332.285156 299.984375 C 343.875 299.984375 353.28125 309.390625 353.28125 320.980469 C 353.28125 332.574219 343.875 341.980469 332.285156 341.980469 C 320.691406 341.980469 311.285156 332.574219 311.285156 320.980469 C 311.285156 309.390625 320.695312 299.984375 332.285156 299.984375 Z M 179.839844 264.394531 C 168.246094 264.394531 158.839844 254.984375 158.839844 243.394531 C 158.839844 231.804688 168.246094 222.394531 179.839844 222.394531 C 191.429688 222.394531 200.835938 231.804688 200.835938 243.394531 C 200.835938 254.984375 191.429688 264.394531 179.839844 264.394531 Z M 332.285156 144.808594 C 343.875 144.808594 353.28125 154.21875 353.28125 165.808594 C 353.28125 177.398438 343.875 186.808594 332.285156 186.808594 C 320.691406 186.808594 311.285156 177.398438 311.285156 165.808594 C 311.285156 154.21875 320.695312 144.808594 332.285156 144.808594 Z M 332.285156 144.808594 " style=" stroke:none;fill-rule:nonzero;fill:rgb(0%,0%,0%);fill-opacity:1;" />
<path d="M 269.558594 0 C 135.386719 0 26.300781 109.222656 26.300781 243.257812 C 26.300781 273.53125 31.890625 303.390625 43.074219 331.753906 C 51.664062 353.433594 63.117188 373.75 76.480469 391.203125 L 3.9375 464.292969 C 0.121094 468.246094 -1.105469 474.109375 1.074219 479.152344 C 3.257812 484.199219 8.167969 487.609375 13.621094 487.609375 L 269.152344 487.609375 C 269.695312 487.609375 270.105469 487.609375 270.652344 487.472656 L 280.195312 486.382812 C 342.644531 483.515625 400.871094 456.792969 444.367188 411.25 C 488 365.570312 512 305.574219 512 242.578125 C 512 177.671875 486.773438 116.71875 441.09375 70.90625 C 395.417969 25.089844 334.464844 0 269.558594 0 Z M 424.734375 392.429688 C 386.007812 432.929688 334.191406 456.65625 278.695312 459.109375 C 278.421875 459.109375 278.148438 459.109375 277.742188 459.246094 L 268.46875 460.335938 L 46.480469 460.335938 L 104.570312 401.976562 C 109.613281 396.929688 109.886719 388.886719 105.25 383.433594 C 90.253906 366.113281 77.570312 344.84375 68.570312 321.9375 C 58.753906 296.710938 53.710938 270.394531 53.710938 243.394531 C 53.710938 124.21875 150.519531 27.40625 269.695312 27.40625 C 327.375 27.40625 381.507812 49.769531 422.003906 90.265625 C 462.640625 130.902344 485 184.898438 485 242.578125 C 484.867188 298.484375 463.457031 351.796875 424.734375 392.429688 Z M 424.734375 392.429688 " style=" stroke:none;fill-rule:nonzero;fill:rgb(0%,0%,0%);fill-opacity:1;" />
</g>
</svg>