<svg xmlns="http://www.w3.org/2000/svg" height="512pt" version="1.1" viewBox="0 -12 512.00015 512" width="512pt">
<g id="surface1">
<path d="M 309.101562 168.808594 C 301.601562 168.808594 295.46875 174.945312 295.46875 182.445312 C 295.46875 189.945312 301.601562 196.078125 309.101562 196.078125 C 335.148438 196.078125 356.417969 217.488281 356.417969 243.667969 C 356.417969 269.847656 335.148438 291.121094 309.101562 291.121094 L 274.332031 291.121094 L 293.695312 268.347656 C 298.605469 262.621094 297.921875 253.894531 292.195312 248.984375 C 286.46875 244.078125 277.878906 244.757812 272.96875 250.347656 L 234.242188 295.480469 C 234.242188 295.480469 234.242188 295.480469 234.105469 295.617188 C 233.972656 295.753906 233.835938 295.890625 233.699219 296.164062 C 233.5625 296.300781 233.425781 296.4375 233.289062 296.710938 C 233.152344 296.847656 233.015625 297.117188 232.882812 297.253906 C 232.746094 297.390625 232.609375 297.664062 232.609375 297.800781 C 232.472656 297.9375 232.472656 298.210938 232.335938 298.347656 C 232.199219 298.484375 232.199219 298.753906 232.0625 298.894531 C 231.925781 299.027344 231.925781 299.300781 231.789062 299.4375 C 231.65625 299.574219 231.65625 299.847656 231.519531 299.984375 C 231.382812 300.257812 231.382812 300.394531 231.382812 300.667969 C 231.382812 300.800781 231.246094 301.074219 231.246094 301.210938 C 231.246094 301.484375 231.109375 301.621094 231.109375 301.894531 C 231.109375 302.167969 230.972656 302.300781 230.972656 302.574219 C 230.972656 302.710938 230.972656 302.984375 230.835938 303.121094 C 230.835938 303.53125 231.109375 303.804688 231.109375 304.210938 C 231.109375 304.347656 231.382812 304.347656 231.382812 304.484375 C 231.382812 304.894531 231.109375 305.304688 231.246094 305.710938 C 231.246094 305.847656 231.109375 306.121094 231.246094 306.257812 C 231.246094 306.53125 231.246094 306.667969 231.246094 306.9375 C 231.246094 307.210938 231.246094 307.347656 231.382812 307.621094 C 231.382812 307.757812 231.519531 308.03125 231.519531 308.167969 C 231.519531 308.441406 231.65625 308.574219 231.65625 308.847656 C 231.65625 308.984375 231.789062 309.257812 231.789062 309.394531 C 231.925781 309.667969 231.925781 309.804688 232.0625 309.941406 C 232.199219 310.078125 232.199219 310.347656 232.335938 310.484375 C 232.472656 310.625 232.472656 310.894531 232.609375 311.03125 C 232.746094 311.167969 232.882812 311.441406 232.882812 311.578125 C 233.015625 311.714844 233.152344 311.984375 233.289062 312.125 C 233.425781 312.261719 233.5625 312.394531 233.699219 312.667969 C 233.835938 312.804688 233.972656 313.078125 234.105469 313.214844 C 234.105469 313.214844 234.105469 313.351562 234.242188 313.351562 L 272.96875 358.210938 C 275.695312 361.347656 279.511719 362.984375 283.332031 362.984375 C 286.46875 362.984375 289.605469 361.894531 292.195312 359.710938 C 297.921875 354.800781 298.46875 346.347656 293.558594 340.621094 L 274.46875 318.394531 L 309.238281 318.394531 C 350.417969 318.394531 383.824219 284.714844 383.824219 243.535156 C 383.824219 202.355469 350.28125 168.808594 309.101562 168.808594 Z M 309.101562 168.808594 " style=" stroke:none;fill-rule:nonzero;fill:rgb(0%,0%,0%);fill-opacity:1;" />
<path d="M 239.152344 236.441406 L 277.878906 191.308594 C 277.878906 191.308594 277.878906 191.171875 278.015625 191.171875 C 278.148438 191.035156 278.285156 190.898438 278.421875 190.761719 C 278.558594 190.625 278.695312 190.351562 278.832031 190.214844 C 278.96875 190.078125 279.105469 189.945312 279.105469 189.671875 C 279.242188 189.535156 279.375 189.261719 279.511719 189.125 C 279.648438 188.988281 279.648438 188.714844 279.785156 188.578125 C 279.921875 188.441406 279.921875 188.171875 280.058594 187.898438 C 280.195312 187.761719 280.195312 187.488281 280.332031 187.351562 C 280.464844 187.078125 280.464844 186.941406 280.601562 186.667969 C 280.601562 186.53125 280.738281 186.261719 280.738281 186.125 C 280.738281 185.851562 280.875 185.714844 280.875 185.441406 C 280.875 185.304688 281.011719 185.03125 281.011719 184.894531 C 281.011719 184.625 281.148438 184.351562 281.148438 184.078125 C 281.148438 183.941406 281.148438 183.804688 281.148438 183.53125 C 281.148438 183.125 281.011719 182.714844 281.011719 182.304688 C 281.011719 182.304688 280.738281 182.304688 280.738281 182.167969 C 280.738281 181.761719 281.011719 181.351562 280.875 180.941406 C 280.875 180.804688 281.011719 180.667969 281.011719 180.53125 C 281.011719 180.261719 281.011719 179.988281 281.011719 179.714844 C 281.011719 179.578125 281.011719 179.304688 280.875 179.167969 C 280.875 178.898438 280.738281 178.761719 280.738281 178.488281 C 280.738281 178.351562 280.601562 178.078125 280.601562 177.941406 C 280.464844 177.667969 280.464844 177.53125 280.332031 177.257812 C 280.195312 177.125 280.195312 176.851562 280.058594 176.714844 C 279.921875 176.578125 279.921875 176.304688 279.785156 176.167969 C 279.648438 176.03125 279.648438 175.757812 279.511719 175.621094 C 279.375 175.484375 279.242188 175.214844 279.105469 175.078125 C 278.96875 174.941406 278.832031 174.804688 278.832031 174.53125 C 278.695312 174.394531 278.558594 174.121094 278.421875 173.984375 C 278.285156 173.847656 278.148438 173.710938 278.015625 173.441406 C 278.015625 173.441406 278.015625 173.304688 277.878906 173.304688 L 239.152344 128.441406 C 234.242188 122.714844 225.652344 122.171875 219.925781 127.078125 C 214.199219 131.988281 213.652344 140.441406 218.5625 146.167969 L 237.789062 168.257812 L 203.019531 168.257812 C 161.839844 168.257812 128.433594 201.9375 128.433594 243.117188 C 128.433594 284.296875 161.839844 317.839844 203.019531 317.839844 C 210.519531 317.839844 216.65625 311.839844 216.65625 304.207031 C 216.65625 296.570312 210.519531 290.570312 203.019531 290.570312 C 176.976562 290.570312 155.703125 269.160156 155.703125 243.117188 C 155.703125 217.074219 176.976562 195.667969 203.019531 195.667969 L 237.789062 195.667969 L 218.425781 218.4375 C 213.519531 224.164062 214.199219 232.890625 219.925781 237.800781 C 222.519531 239.980469 225.652344 241.074219 228.789062 241.074219 C 232.609375 241.214844 236.425781 239.578125 239.152344 236.441406 Z M 239.152344 236.441406 " style=" stroke:none;fill-rule:nonzero;fill:rgb(0%,0%,0%);fill-opacity:1;" />
<path d="M 269.558594 0 C 135.386719 0 26.300781 109.222656 26.300781 243.257812 C 26.300781 273.53125 31.890625 303.390625 43.074219 331.753906 C 51.664062 353.433594 63.117188 373.75 76.480469 391.203125 L 3.9375 464.292969 C 0.121094 468.246094 -1.105469 474.109375 1.074219 479.152344 C 3.257812 484.199219 8.167969 487.609375 13.621094 487.609375 L 269.152344 487.609375 C 269.695312 487.609375 270.105469 487.609375 270.652344 487.472656 L 280.195312 486.382812 C 342.644531 483.515625 400.871094 456.792969 444.367188 411.25 C 488 365.570312 512 305.574219 512 242.578125 C 512 177.671875 486.773438 116.71875 441.09375 70.90625 C 395.417969 25.089844 334.464844 0 269.558594 0 Z M 424.734375 392.429688 C 386.007812 432.929688 334.191406 456.65625 278.695312 459.109375 C 278.421875 459.109375 278.148438 459.109375 277.742188 459.246094 L 268.46875 460.335938 L 46.480469 460.335938 L 104.570312 401.976562 C 109.613281 396.929688 109.886719 388.886719 105.25 383.433594 C 90.253906 366.113281 77.570312 344.84375 68.570312 321.9375 C 58.753906 296.710938 53.710938 270.394531 53.710938 243.394531 C 53.710938 124.21875 150.519531 27.40625 269.695312 27.40625 C 327.375 27.40625 381.507812 49.769531 422.003906 90.265625 C 462.640625 130.902344 485 184.898438 485 242.578125 C 484.867188 298.484375 463.457031 351.796875 424.734375 392.429688 Z M 424.734375 392.429688 " style=" stroke:none;fill-rule:nonzero;fill:rgb(0%,0%,0%);fill-opacity:1;" />
</g>
</svg>