<svg xmlns="http://www.w3.org/2000/svg" height="512pt" version="1.1" viewBox="0 -12 512.00015 512" width="512pt">
<g id="surface1">
<path d="M 256.0625 266.4375 C 248.5625 266.4375 242.425781 272.574219 242.425781 280.074219 L 242.425781 302.164062 C 242.425781 309.664062 248.5625 315.800781 256.0625 315.800781 C 263.558594 315.800781 269.695312 309.664062 269.695312 302.164062 L 269.695312 280.074219 C 269.695312 272.574219 263.558594 266.4375 256.0625 266.4375 Z M 256.0625 266.4375 " style=" stroke:none;fill-rule:nonzero;fill:rgb(0%,0%,0%);fill-opacity:1;" />
<path d="M 321.511719 212.035156 L 321.511719 175.625 C 321.511719 139.492188 292.195312 110.039062 256.0625 110.039062 C 228.925781 110.039062 204.246094 127.082031 194.699219 152.582031 C 192.109375 159.671875 195.65625 167.445312 202.609375 170.171875 C 209.699219 172.761719 217.472656 169.21875 220.199219 162.261719 C 225.789062 147.402344 240.105469 137.445312 256.0625 137.445312 C 277.195312 137.445312 294.242188 154.628906 294.242188 175.761719 L 294.242188 194.035156 C 281.96875 188.851562 269.558594 185.988281 256.0625 185.988281 C 203.429688 185.988281 160.75 228.804688 160.75 281.4375 C 160.75 334.070312 203.5625 376.886719 256.199219 376.886719 C 308.832031 376.886719 351.511719 334.070312 351.511719 281.4375 C 351.375 254.03125 340.601562 229.488281 321.511719 212.035156 Z M 256.0625 349.480469 C 218.425781 349.480469 187.882812 318.9375 187.882812 281.300781 C 187.882812 243.667969 218.425781 213.125 256.0625 213.125 C 293.695312 213.125 324.238281 243.667969 324.238281 281.300781 C 324.238281 318.9375 293.695312 349.480469 256.0625 349.480469 Z M 256.0625 349.480469 " style=" stroke:none;fill-rule:nonzero;fill:rgb(0%,0%,0%);fill-opacity:1;" />
<path d="M 269.558594 0 C 135.386719 0 26.300781 109.222656 26.300781 243.257812 C 26.300781 273.53125 31.890625 303.390625 43.074219 331.753906 C 51.664062 353.433594 63.117188 373.75 76.480469 391.203125 L 3.9375 464.292969 C 0.121094 468.246094 -1.105469 474.109375 1.074219 479.152344 C 3.257812 484.199219 8.167969 487.609375 13.621094 487.609375 L 269.152344 487.609375 C 269.695312 487.609375 270.105469 487.609375 270.652344 487.472656 L 280.195312 486.382812 C 342.644531 483.515625 400.871094 456.792969 444.367188 411.25 C 488 365.570312 512 305.574219 512 242.578125 C 512 177.671875 486.773438 116.71875 441.09375 70.90625 C 395.417969 25.089844 334.464844 0 269.558594 0 Z M 424.734375 392.429688 C 386.007812 432.929688 334.191406 456.65625 278.695312 459.109375 C 278.421875 459.109375 278.148438 459.109375 277.742188 459.246094 L 268.46875 460.335938 L 46.480469 460.335938 L 104.570312 401.976562 C 109.613281 396.929688 109.886719 388.886719 105.25 383.433594 C 90.253906 366.113281 77.570312 344.84375 68.570312 321.9375 C 58.753906 296.710938 53.710938 270.394531 53.710938 243.394531 C 53.710938 124.21875 150.519531 27.40625 269.695312 27.40625 C 327.375 27.40625 381.507812 49.769531 422.003906 90.265625 C 462.640625 130.902344 485 184.898438 485 242.578125 C 484.867188 298.484375 463.457031 351.796875 424.734375 392.429688 Z M 424.734375 392.429688 " style=" stroke:none;fill-rule:nonzero;fill:rgb(0%,0%,0%);fill-opacity:1;" />
</g>
</svg>