<svg xmlns="http://www.w3.org/2000/svg" height="512pt" version="1.1" viewBox="0 -12 512.00015 512" width="512pt">
<g id="surface1">
<path d="M 356.828125 193.214844 C 323.558594 165.125 288.785156 150.265625 256.0625 150.265625 C 223.335938 150.265625 188.5625 165.125 155.292969 193.214844 C 130.886719 213.941406 115.75 234.394531 115.070312 235.347656 C 111.523438 240.121094 111.523438 246.667969 115.070312 251.4375 C 115.75 252.257812 130.886719 272.847656 155.292969 293.574219 C 188.5625 321.660156 223.335938 336.523438 256.0625 336.523438 C 288.785156 336.523438 323.558594 321.660156 356.828125 293.574219 C 381.234375 272.847656 396.371094 252.394531 397.050781 251.4375 C 400.597656 246.667969 400.597656 240.121094 397.050781 235.347656 C 396.371094 234.53125 381.234375 213.941406 356.828125 193.214844 Z M 217.472656 243.394531 C 217.472656 222.125 234.789062 204.804688 256.0625 204.804688 C 277.332031 204.804688 294.648438 222.125 294.648438 243.394531 C 294.648438 264.667969 277.332031 281.984375 256.0625 281.984375 C 234.789062 281.984375 217.472656 264.667969 217.472656 243.394531 Z M 143.703125 243.394531 C 159.25 225.125 200.699219 181.898438 248.96875 177.945312 C 215.972656 181.488281 190.199219 209.578125 190.199219 243.394531 C 190.199219 277.347656 215.972656 305.300781 248.96875 308.847656 C 200.835938 304.890625 159.113281 261.667969 143.703125 243.394531 Z M 263.152344 308.84375 C 296.148438 305.300781 321.921875 277.210938 321.921875 243.394531 C 321.921875 209.441406 296.148438 181.488281 263.152344 177.945312 C 311.285156 182.035156 352.875 225.257812 368.417969 243.53125 C 353.011719 261.667969 311.421875 304.890625 263.152344 308.84375 Z M 263.152344 308.84375 " style=" stroke:none;fill-rule:nonzero;fill:rgb(0%,0%,0%);fill-opacity:1;" />
<path d="M 269.558594 0 C 135.386719 0 26.300781 109.222656 26.300781 243.257812 C 26.300781 273.53125 31.890625 303.390625 43.074219 331.753906 C 51.664062 353.433594 63.117188 373.75 76.480469 391.203125 L 3.9375 464.292969 C 0.121094 468.246094 -1.105469 474.109375 1.074219 479.152344 C 3.257812 484.199219 8.167969 487.609375 13.621094 487.609375 L 269.152344 487.609375 C 269.695312 487.609375 270.105469 487.609375 270.652344 487.472656 L 280.195312 486.382812 C 342.644531 483.515625 400.871094 456.792969 444.367188 411.25 C 488 365.570312 512 305.574219 512 242.578125 C 512 177.671875 486.773438 116.71875 441.09375 70.90625 C 395.417969 25.089844 334.464844 0 269.558594 0 Z M 424.734375 392.429688 C 386.007812 432.929688 334.191406 456.65625 278.695312 459.109375 C 278.421875 459.109375 278.148438 459.109375 277.742188 459.246094 L 268.46875 460.335938 L 46.480469 460.335938 L 104.570312 401.976562 C 109.613281 396.929688 109.886719 388.886719 105.25 383.433594 C 90.253906 366.113281 77.570312 344.84375 68.570312 321.9375 C 58.753906 296.710938 53.710938 270.394531 53.710938 243.394531 C 53.710938 124.21875 150.519531 27.40625 269.695312 27.40625 C 327.375 27.40625 381.507812 49.769531 422.003906 90.265625 C 462.640625 130.902344 485 184.898438 485 242.578125 C 484.867188 298.484375 463.457031 351.796875 424.734375 392.429688 Z M 424.734375 392.429688 " style=" stroke:none;fill-rule:nonzero;fill:rgb(0%,0%,0%);fill-opacity:1;" />
</g>
</svg>